inDegrees=no
num_controls=7
num_derivatives=13
num_iterations=94
num_multipliers=7
num_parameters=0
num_slacks=7
num_states=26
objective=0.517392
objective_accelerations=0.039877
objective_balance=0.002184
objective_effort=0.043467
objective_height=0.420241
objective_ligament=0.011623
solver_duration=1262.165304
status=Solve_Succeeded
success=true
DataType=double
version=3
OpenSimVersion=4.5
endheader
time	/jointset/ground_pelvis/pelvis_tilt/value	/jointset/ground_pelvis/pelvis_tx/value	/jointset/ground_pelvis/pelvis_ty/value	/jointset/hip_l/hip_flexion_l/value	/jointset/hip_l/hip_adduction_l/value	/jointset/hip_l/hip_rotation_l/value	/jointset/back/lumbar_extension/value	/jointset/patellofemoral_l/patellar_flexion_l/value	/jointset/knee_l/knee_flexion_l/value	/jointset/knee_l/knee_adduction_l/value	/jointset/knee_l/knee_rotation_l/value	/jointset/ankle_l/ankle_angle_l/value	/jointset/subtalar_l/subtalar_angle_l/value	/jointset/ground_pelvis/pelvis_tilt/speed	/jointset/ground_pelvis/pelvis_tx/speed	/jointset/ground_pelvis/pelvis_ty/speed	/jointset/hip_l/hip_flexion_l/speed	/jointset/hip_l/hip_adduction_l/speed	/jointset/hip_l/hip_rotation_l/speed	/jointset/back/lumbar_extension/speed	/jointset/patellofemoral_l/patellar_flexion_l/speed	/jointset/knee_l/knee_flexion_l/speed	/jointset/knee_l/knee_adduction_l/speed	/jointset/knee_l/knee_rotation_l/speed	/jointset/ankle_l/ankle_angle_l/speed	/jointset/subtalar_l/subtalar_angle_l/speed	/forceset/tau_hip_flexion_l	/forceset/tau_hip_adduction_l	/forceset/tau_hip_rotation_l	/forceset/tau_knee_flexion_l	/forceset/tau_ankle_angle_l	/forceset/tau_subtalar_angle_l	/forceset/tau_lumbar_extension	lambda_cid13_p0	lambda_cid13_p1	lambda_cid13_p2	lambda_cid13_p3	lambda_cid13_p4	lambda_cid13_p5	lambda_cid14_p0	/jointset/ground_pelvis/pelvis_tilt/accel	/jointset/ground_pelvis/pelvis_tx/accel	/jointset/ground_pelvis/pelvis_ty/accel	/jointset/hip_l/hip_flexion_l/accel	/jointset/hip_l/hip_adduction_l/accel	/jointset/hip_l/hip_rotation_l/accel	/jointset/back/lumbar_extension/accel	/jointset/patellofemoral_l/patellar_flexion_l/accel	/jointset/knee_l/knee_flexion_l/accel	/jointset/knee_l/knee_adduction_l/accel	/jointset/knee_l/knee_rotation_l/accel	/jointset/ankle_l/ankle_angle_l/accel	/jointset/subtalar_l/subtalar_angle_l/accel	gamma_cid13_p0	gamma_cid13_p1	gamma_cid13_p2	gamma_cid13_p3	gamma_cid13_p4	gamma_cid13_p5	gamma_cid14_p0
0.5	-0.1153841437424306	-0.05510237322912215	0.8252126249243562	0.8849385816878543	-0.3237241259000768	-0.1229120123414133	-0.777945183898844	0.7884613781863198	0.7884613781863179	-0.1087554707190855	-0.1744225722069403	0.07319481300396508	-0.0061929607582253	-0.1911080274097315	-0.203382152868562	-0.3367374772562167	1.472627519694435	-0.04161494348596511	0.4586619585166832	-0.8426879013693572	1.437053392843567	1.437053392843573	0.1296291250170988	0.0008579839956758303	0.2467817806465145	0.03310752904144761	-0.2788788394861414	0.03950658216989077	-0.003737052674252282	-0.2140538207568366	0.1228152489414925	0.03112590595651282	0.328801709814616	-5.755112482533796	-13.69821987330951	3.086450930489235	-10.07269362453472	-704.171155409913	-60.58417540691062	-14.89353362178228	0.2887585749912575	0.6604501369048582	-0.1064046339178771	-1.468226232931512	0.22543280963385	-0.350585745368289	1.722547341332949	-1.115897283294311	-1.115897283294307	-0.2827746793946787	0.02236001711694221	0.01661522065758326	0.2539872988383018	-5.945826690635282e-08	-4.686455626705409e-07	1.076826036108209e-07	-4.948801501689877e-08	-8.366248022328754e-08	-5.775130224315915e-08	-8.118701149119718e-08
0.51	-0.1172805029034283	-0.05710306211653673	0.8218406569053558	0.8995892817861995	-0.3241294529866618	-0.1183439954657149	-0.786284954551283	0.8027739592799862	0.8027739592799753	-0.1074739240041168	-0.1744137591719905	0.07566281021424009	-0.005849858706875965	-0.1881306185008233	-0.1967453109375617	-0.3375808695710719	1.457303786739689	-0.03945425609850128	0.4548775721970917	-0.8251724510745092	1.425257985495757	1.425257985495761	0.1266758658478487	0.0008941867706485965	0.2467737101927976	0.03549682622080971	-0.2853514198566683	0.04003239826697287	-0.003940365438842027	-0.2164531002076475	0.1228300092240978	0.0314819061847505	0.3350463089200901	-5.97092857198509	-13.75467958505189	3.026502646384662	-10.06152482967093	-708.0724919703555	-60.38224529760157	-14.36737170869528	0.3072043363089171	0.6668401780385366	-0.06203511423324104	-1.595760283790401	0.2108522091107172	-0.4020174549956348	1.780110580418767	-1.242071754904864	-1.242071754905213	-0.3023262276284672	-0.007274109104359155	-0.01612611216672559	0.2290426490822704	-8.023264310000001e-08	-3.561209314077856e-07	2.8188410031149e-07	-1.792693446968777e-08	-9.564858019927593e-08	-4.678945624945302e-08	-8.894252796288058e-08
0.52	-0.1191460935178501	-0.05903707479327389	0.8184625092464143	0.9140804818635825	-0.3245132800982029	-0.1138157529291669	-0.7944467573594036	0.8169624444412976	0.8169624444412857	-0.1062220548192453	-0.1744048890126347	0.07812940513322213	-0.005483335339413608	-0.1849543180931452	-0.1900469107330767	-0.3379734052444699	1.440727515503167	-0.03731494847872065	0.4507070906878627	-0.8070943325053056	1.412234206372729	1.412234206372731	0.1236936190010725	0.0008694088739499945	0.2465013223878622	0.03779179226405591	-0.2918240002272033	0.04055821436405731	-0.004143678203511685	-0.2188523796584551	0.1228447695067058	0.03183790641298837	0.3412909080255561	-6.189951921161945	-13.81141220261503	2.967551116938366	-10.07862782239173	-712.0458400768256	-60.20550658511116	-13.83829258220591	0.3285368747455804	0.6727617916015983	-0.01623330562650986	-1.718733889286554	0.2211568560972123	-0.4278047832958081	1.835080996204214	-1.361571638337566	-1.361571638337576	-0.288572214899863	0.0101638827826545	-0.03624824958637962	0.235121071615034	-1.085702400958552e-07	-2.02209958947067e-07	5.225258323679849e-07	2.761946465379021e-08	-1.158523673084443e-07	-2.926685948041674e-08	-9.928673614346999e-08
0.53	-0.1209790430638228	-0.06090388760264028	0.8150827215695879	0.9283997393785783	-0.3248759163589895	-0.1093300700110275	-0.8024251745664981	0.831014353035917	0.8310143530358983	-0.1050010244302396	-0.1743958084875928	0.0805917801942895	-0.005094516477787381	-0.1816145508573293	-0.1833145381120348	-0.3379051355605913	1.422923620638342	-0.03521571708641717	0.4463576935141387	-0.7885158259998559	1.39792491953436	1.397924919534366	0.1205104047607653	0.0009354488765484375	0.2459145164711847	0.03995099283987901	-0.2979070939165786	0.04091478614551973	-0.004343770943578578	-0.2214765455772973	0.1228990501666267	0.03211385795737604	0.3471575539513804	-6.399971244814947	-13.83255684535529	2.900184943760231	-9.964898111629381	-715.9435492592038	-60.02523398991185	-13.30699310181441	0.3398394466531942	0.6736522595285194	0.03018099640304819	-1.841288853507282	0.2037201120458255	-0.4493756657621421	1.880227915026907	-1.498975214847397	-1.498975214846777	-0.3335055778099772	0.003266600942108339	-0.07877436130836353	0.2031150741935971	-1.206963314530914e-07	-1.021534996757931e-07	6.477969542284825e-07	5.288749213896119e-08	-1.213032475184154e-07	-1.372907972464063e-08	-1.019889975887354e-07
0.54	-0.1227779663777162	-0.06270334123336233	0.811705981367802	0.942534943631232	-0.3252176775395997	-0.1048900547608998	-0.8102156082210776	0.8449164951604938	0.8449164951604877	-0.1038118880934787	-0.1743863790541345	0.08304651167647031	-0.00468474650567742	-0.1781490716753308	-0.1765750750042076	-0.3373639102363848	1.403916863036445	-0.03313993244415807	0.4415735570863583	-0.7694976220019113	1.382280912365558	1.382280912365568	0.1173148085519069	0.0009391905568960925	0.2449726066105068	0.04198201436080799	-0.3039901876059647	0.04127135792697888	-0.004543863683629639	-0.2241007114961406	0.1229533308265501	0.03238980950176269	0.3530241998771951	-6.613851355113466	-13.85394231995249	2.83390490380937	-9.881881832226103	-719.9245174748193	-59.8823245123591	-12.77434238280829	0.3536792639824099	0.6741798889584479	0.07835782243901222	-1.959306436700746	0.2164675060883479	-0.514752634107142	1.923020494703371	-1.628515704424135	-1.628515704424137	-0.2910486086100559	-0.002295781667516309	-0.1072690383867433	0.2094852606361263	-1.148862889122808e-07	-6.168075712475673e-08	6.454239967231944e-07	5.571987440728162e-08	-1.104317626484233e-07	-3.872677282162124e-10	-9.623633924172732e-08
0.55	-0.124541622031866	-0.06443539961674112	0.8083370098250815	0.956474227326363	-0.3255388017193387	-0.1004997245895213	-0.81781374442223	0.8586557483369426	0.8586557483369258	-0.1026548745779673	-0.1743770170405228	0.0854901651387692	-0.004255280008057921	-0.1745595695870507	-0.1698385637691832	-0.336351491015138	1.383746802489585	-0.03109449607373404	0.436439219896336	-0.7500679233640607	1.365364226576057	1.365364226576062	0.1140720925722773	0.0009284105128890408	0.2437072532918844	0.04388590313650921	-0.3098369095803817	0.04153451488622149	-0.004717532732355417	-0.226746854475061	0.1230078616488199	0.0325564810626999	0.3586507425548601	-6.822191577184455	-13.82688719904886	2.757673905117928	-9.758251537026579	-723.7373031890785	-59.67055083618617	-12.24131183053063	0.3649463998643022	0.6731038785022728	0.1244991653528381	-2.074832611714666	0.1970585951837332	-0.5208495157173908	1.962198778231607	-1.754050848642824	-1.754050848643562	-0.343242370751575	-0.001061776280342706	-0.143791467798155	0.1769644123212747	-1.075974030146551e-07	-2.691573258431092e-08	6.324706654438209e-07	5.665941689625269e-08	-9.85681014634572e-08	1.190046861519778e-08	-8.981870177149148e-08
0.5600000000000001	-0.1262687105214206	-0.06610014946022477	0.8049805255132506	0.9702060150664091	-0.3258397761568393	-0.09616235284089292	-0.8252157327910241	0.8722196734890137	0.8722196734889867	-0.1015307600779029	-0.1743678813594325	0.0879196404700428	-0.003807549877424609	-0.1708356387541987	-0.16311336702518	-0.3348664640584652	1.362417672021276	-0.02910998399674201	0.4309818725356144	-0.730268055529951	1.347215307489365	1.347215307489366	0.1107350054681665	0.0008939240483613719	0.242136980405333	0.04563474096357744	-0.3156836315548016	0.04179767184547498	-0.004891201781273501	-0.2293929974539704	0.1230623924710992	0.0327231526236582	0.3642772852325179	-7.035204476254307	-13.79994007071257	2.682518501000335	-9.662368417039334	-727.6435874209055	-59.49549686385637	-11.70897013146483	0.3805650128970806	0.6719169907539797	0.1728793695241618	-2.191120420990479	0.2042826474019521	-0.5793546682470073	1.997054333955351	-1.874962363862307	-1.874962363862292	-0.3099228335062198	-0.007037065771646104	-0.1682529519727921	0.1784750709094528	-9.853390508885119e-08	1.000030343426404e-09	6.068208856355451e-07	5.532755165000462e-08	-8.551382870052234e-08	2.292331417499931e-08	-8.260308935338234e-08
0.5700000000000001	-0.1279579519764815	-0.0676977585306314	0.8016412428971624	0.9837189298164891	-0.3261211088259064	-0.09188120354178672	-0.8324179881046286	0.8855961055066542	0.8855961055066424	-0.1004402102341694	-0.1743591485581481	0.0903319588671592	-0.003342975883284214	-0.1669939228925434	-0.1564154358885061	-0.3329115713638339	1.339984783871209	-0.02716374771121379	0.4251861460584693	-0.7101359567690808	1.327875478436683	1.327875478436685	0.1073755797785519	0.0008457426544057041	0.2402790627608171	0.04725824580422204	-0.321201068481134	0.04190719466083308	-0.005039206015505354	-0.2320671004588142	0.1230634059255551	0.03285131145794353	0.3695637822328637	-7.255341682131439	-13.75449471758256	2.603814106166656	-9.490383290624518	-731.3238758602145	-59.3235531318041	-11.17837291989964	0.3887729896179485	0.6676937645483377	0.2185517626905946	-2.296460887415602	0.1886302666151279	-0.5890297709654456	2.028345210649174	-1.992820111796961	-1.992820111796813	-0.3488422088909121	-0.00462583940017664	-0.2017022362582774	0.1509443576160115	-8.924317671515273e-08	2.434002755415594e-08	5.761249382452257e-07	5.315517496698861e-08	-7.291210497212667e-08	3.224119919911999e-08	-7.532201196005604e-08
